G04 #@! TF.FileFunction,Paste,Top*
%FSLAX46Y46*%
G04 Gerber Fmt 4.6, Leading zero omitted, Abs format (unit mm)*
G04 Created by KiCad (PCBNEW 4.0.2-stable) date 22/09/2016 21:29:14*
%MOMM*%
G01*
G04 APERTURE LIST*
%ADD10C,0.150000*%
%ADD11R,1.397000X0.889000*%
%ADD12R,2.550160X2.700020*%
%ADD13R,2.550160X3.799840*%
%ADD14R,1.200000X1.800000*%
%ADD15R,1.600200X0.701040*%
%ADD16R,2.100580X0.701040*%
%ADD17R,2.750820X1.998980*%
%ADD18R,0.635000X1.270000*%
%ADD19R,2.600000X1.300000*%
G04 APERTURE END LIST*
D10*
D11*
X131445000Y-86677500D03*
X131445000Y-88582500D03*
X151765000Y-91757500D03*
X151765000Y-93662500D03*
X149225000Y-91757500D03*
X149225000Y-93662500D03*
X151130000Y-87312500D03*
X151130000Y-89217500D03*
X151130000Y-80962500D03*
X151130000Y-79057500D03*
X131445000Y-104457500D03*
X131445000Y-106362500D03*
X151765000Y-109537500D03*
X151765000Y-111442500D03*
X149225000Y-109537500D03*
X149225000Y-111442500D03*
X151130000Y-105092500D03*
X151130000Y-106997500D03*
X151130000Y-98742500D03*
X151130000Y-96837500D03*
D12*
X135079740Y-116840000D03*
D13*
X129080260Y-116840000D03*
D14*
X169545000Y-83800000D03*
X167005000Y-83800000D03*
X164465000Y-83800000D03*
X161925000Y-83800000D03*
X161925000Y-94000000D03*
X164465000Y-94000000D03*
X167005000Y-94000000D03*
X169545000Y-94000000D03*
X169545000Y-101580000D03*
X167005000Y-101580000D03*
X164465000Y-101580000D03*
X161925000Y-101580000D03*
X161925000Y-111780000D03*
X164465000Y-111780000D03*
X167005000Y-111780000D03*
X169545000Y-111780000D03*
D11*
X133985000Y-86677500D03*
X133985000Y-88582500D03*
X136525000Y-86677500D03*
X136525000Y-88582500D03*
X133985000Y-104457500D03*
X133985000Y-106362500D03*
X136525000Y-104457500D03*
X136525000Y-106362500D03*
X160020000Y-79057500D03*
X160020000Y-80962500D03*
X162560000Y-79057500D03*
X162560000Y-80962500D03*
D15*
X154310080Y-90573860D03*
D16*
X154559000Y-92075000D03*
D15*
X154310080Y-93576140D03*
D17*
X156959300Y-92075000D03*
D15*
X154310080Y-108353860D03*
D16*
X154559000Y-109855000D03*
D15*
X154310080Y-111356140D03*
D17*
X156959300Y-109855000D03*
D18*
X153670000Y-87249000D03*
X154940000Y-87249000D03*
X156210000Y-87249000D03*
X157480000Y-87249000D03*
X157480000Y-81661000D03*
X156210000Y-81661000D03*
X154940000Y-81661000D03*
X153670000Y-81661000D03*
X153670000Y-105029000D03*
X154940000Y-105029000D03*
X156210000Y-105029000D03*
X157480000Y-105029000D03*
X157480000Y-99441000D03*
X156210000Y-99441000D03*
X154940000Y-99441000D03*
X153670000Y-99441000D03*
D19*
X113340000Y-71410000D03*
X120340000Y-71410000D03*
X113340000Y-75910000D03*
X120340000Y-75910000D03*
M02*
