M48
METRIC,TZ
T1C0.635
T2C0.890
T3C1.016
T4C2.010
T5C3.175
%
G90
G05
T1
X119.38Y-73.66
X130.81Y-75.565
X132.08Y-116.84
X149.86Y-118.11
X151.13Y-100.33
X153.67Y-97.79
X154.94Y-78.74
X154.94Y-88.9
X154.94Y-97.79
X154.94Y-106.68
X156.21Y-80.01
X156.21Y-88.9
X156.21Y-97.79
X156.21Y-106.68
X170.18Y-81.28
X172.72Y-104.775
T2
X123.19Y-88.9
X123.19Y-91.44
X123.19Y-106.68
X123.19Y-109.22
T3
X127.635Y-86.36
X127.635Y-88.9
X127.635Y-91.44
X127.635Y-104.14
X127.635Y-106.68
X127.635Y-109.22
X129.54Y-72.39
X132.08Y-72.39
X134.366Y-72.39
X136.906Y-72.39
X138.43Y-120.65
X139.446Y-72.39
X140.97Y-120.65
X141.986Y-72.39
X143.51Y-120.65
X144.526Y-72.39
X145.415Y-86.36
X145.415Y-88.9
X145.415Y-91.44
X145.415Y-104.14
X145.415Y-106.68
X145.415Y-109.22
X146.05Y-120.65
X147.066Y-72.39
X148.59Y-120.65
X149.606Y-72.39
X151.13Y-120.65
X152.146Y-72.39
X153.67Y-120.65
X156.21Y-72.39
X156.21Y-120.65
X158.75Y-72.39
X161.29Y-72.39
X161.29Y-120.65
X163.83Y-72.39
X163.83Y-120.65
X166.37Y-72.39
X166.37Y-120.65
X168.91Y-72.39
X168.91Y-120.65
X171.45Y-72.39
X171.45Y-120.65
X173.99Y-72.39
X173.99Y-120.65
T4
X118.11Y-83.82
X118.11Y-93.98
X118.11Y-101.6
X118.11Y-111.76
T5
X124.46Y-120.65
X125.73Y-72.39
X176.53Y-87.63
X176.53Y-115.57
T0
M30
