G04 #@! TF.FileFunction,Soldermask,Bot*
%FSLAX46Y46*%
G04 Gerber Fmt 4.6, Leading zero omitted, Abs format (unit mm)*
G04 Created by KiCad (PCBNEW 4.0.2-stable) date 22/09/2016 21:29:14*
%MOMM*%
G01*
G04 APERTURE LIST*
%ADD10C,0.150000*%
%ADD11C,3.500000*%
%ADD12R,1.800000X1.800000*%
%ADD13C,1.800000*%
%ADD14O,1.524000X2.540000*%
%ADD15O,2.540000X1.542000*%
%ADD16O,2.540000X1.524000*%
G04 APERTURE END LIST*
D10*
D11*
X118110000Y-93980000D03*
X118110000Y-83820000D03*
D12*
X123190000Y-88900000D03*
D13*
X123190000Y-91440000D03*
D11*
X118110000Y-111760000D03*
X118110000Y-101600000D03*
D12*
X123190000Y-106680000D03*
D13*
X123190000Y-109220000D03*
D14*
X173990000Y-120650000D03*
X171450000Y-120650000D03*
X168910000Y-120650000D03*
X161290000Y-120650000D03*
X163830000Y-120650000D03*
X166370000Y-120650000D03*
X156210000Y-120650000D03*
X153670000Y-120650000D03*
X151130000Y-120650000D03*
X146050000Y-120650000D03*
X143510000Y-120650000D03*
X173990000Y-72390000D03*
X171450000Y-72390000D03*
X168910000Y-72390000D03*
X166370000Y-72390000D03*
X163830000Y-72390000D03*
X161290000Y-72390000D03*
X158750000Y-72390000D03*
X156210000Y-72390000D03*
X152146000Y-72390000D03*
X149606000Y-72390000D03*
X147066000Y-72390000D03*
X144526000Y-72390000D03*
X141986000Y-72390000D03*
X139446000Y-72390000D03*
X136906000Y-72390000D03*
X134366000Y-72390000D03*
X148590000Y-120650000D03*
X140970000Y-120650000D03*
X138430000Y-120650000D03*
X132080000Y-72390000D03*
X129540000Y-72390000D03*
D15*
X145415000Y-86360000D03*
D16*
X145415000Y-88900000D03*
X145415000Y-91440000D03*
X127635000Y-86360000D03*
X127635000Y-88900000D03*
X127635000Y-91440000D03*
D15*
X145415000Y-104140000D03*
D16*
X145415000Y-106680000D03*
X145415000Y-109220000D03*
X127635000Y-104140000D03*
X127635000Y-106680000D03*
X127635000Y-109220000D03*
M02*
